<svg data-v-fde0c5aa="" xmlns="http://www.w3.org/2000/svg" viewBox="0 0 300 300" class="font"><!----><defs data-v-fde0c5aa=""><!----></defs><rect data-v-fde0c5aa="" fill="transparent" x="0" y="0" width="300px" height="300px" class="logo-background-square"></rect><defs data-v-fde0c5aa=""><linearGradient data-v-fde0c5aa="" gradientTransform="rotate(25)" id="2541105e-ab43-4a7a-9ba8-0adc766540dd" x1="0%" y1="0%" x2="100%" y2="0%"><stop data-v-fde0c5aa="" offset="0%" stop-color="#51A4FB" stop-opacity="1"></stop><stop data-v-fde0c5aa="" offset="100%" stop-color="#51A4FB" stop-opacity="1"></stop></linearGradient></defs><g data-v-fde0c5aa="" id="327fea2b-0e84-4fea-b3c6-92a5234bb318" fill="url(#2541105e-ab43-4a7a-9ba8-0adc766540dd)" transform="matrix(5.8635393740907436,0,0,5.8635393740907436,38.416844306086546,121.2686558087763)"><path d="M3.61 2.11L3.61 2.11L3.61 3.08L5.24 3.08L5.24 5.01L3.61 5.01L3.61 10.50L1.40 10.50L1.40 5.01L0.27 5.01L0.27 3.08L1.40 3.08L1.40 1.88L1.40 1.88Q1.40-0.88 4.19-0.88L4.19-0.88L4.19-0.88Q5.05-0.88 5.38-0.70L5.38-0.70L5.38 1.12L5.38 1.12Q5.18 1.02 4.70 1.02L4.70 1.02L4.70 1.02Q4.14 1.02 3.88 1.25L3.88 1.25L3.88 1.25Q3.61 1.47 3.61 2.11ZM10.49 2.90L10.49 2.90L10.49 2.90Q10.64 2.90 10.70 2.91L10.70 2.91L10.70 5.04L10.32 5.04L10.32 5.04Q9.17 5.04 8.72 5.68L8.72 5.68L8.72 10.50L6.51 10.50L6.51 5.18L6.38 3.08L8.36 3.08L8.51 3.95L8.51 3.95Q9.25 2.90 10.49 2.90ZM18.51 6.59L18.51 7.59L13.78 7.59L13.78 7.59Q13.83 8.34 14.18 8.67L14.18 8.67L14.18 8.67Q14.53 9.00 15.18 9.00L15.18 9.00L15.18 9.00Q15.74 9.00 16.08 8.74L16.08 8.74L16.08 8.74Q16.42 8.47 16.42 8.12L16.42 8.12L18.51 8.12L18.51 8.18L18.51 8.18Q18.51 9.27 17.62 9.97L17.62 9.97L17.62 9.97Q16.73 10.68 15.16 10.68L15.16 10.68L15.16 10.68Q13.38 10.68 12.47 9.67L12.47 9.67L12.47 9.67Q11.56 8.67 11.56 6.99L11.56 6.99L11.56 6.59L11.56 6.59Q11.56 4.93 12.47 3.91L12.47 3.91L12.47 3.91Q13.38 2.90 15.08 2.90L15.08 2.90L15.08 2.90Q16.77 2.90 17.64 3.91L17.64 3.91L17.64 3.91Q18.51 4.91 18.51 6.59L18.51 6.59ZM16.28 5.99L16.28 5.99Q16.18 4.58 15.04 4.58L15.04 4.58L15.04 4.58Q13.89 4.58 13.79 5.99L13.79 5.99L16.28 5.99ZM21.90 10.50L19.68 10.50L19.68-0.70L21.90-0.70L21.90 10.50ZM29.79 10.50L27.80 10.50L27.66 9.73L27.66 9.73Q26.78 10.68 25.34 10.68L25.34 10.68L25.34 10.68Q24.16 10.68 23.62 10.06L23.62 10.06L23.62 10.06Q23.07 9.44 23.07 8.46L23.07 8.46L23.07 8.32L23.07 8.32Q23.07 7.20 23.75 6.66L23.75 6.66L23.75 6.66Q24.43 6.13 25.73 5.94L25.73 5.94L27.44 5.67L27.44 5.67Q27.43 5.10 27.20 4.84L27.20 4.84L27.20 4.84Q26.98 4.58 26.43 4.58L26.43 4.58L26.43 4.58Q25.44 4.58 25.44 5.53L25.44 5.53L23.35 5.53L23.35 5.40L23.35 5.40Q23.35 4.30 24.08 3.60L24.08 3.60L24.08 3.60Q24.81 2.90 26.50 2.90L26.50 2.90L26.50 2.90Q28.24 2.90 28.95 3.60L28.95 3.60L28.95 3.60Q29.65 4.30 29.65 5.73L29.65 5.73L29.65 8.40L29.79 10.50ZM26.15 8.89L26.15 8.89L26.15 8.89Q26.91 8.89 27.44 8.33L27.44 8.33L27.44 6.97L26.18 7.17L26.18 7.17Q25.27 7.32 25.27 8.05L25.27 8.05L25.27 8.13L25.27 8.13Q25.27 8.46 25.49 8.67L25.49 8.67L25.49 8.67Q25.70 8.89 26.15 8.89ZM37.79 5.47L37.79 10.50L35.59 10.50L35.59 5.84L35.59 5.84Q35.59 4.80 34.61 4.80L34.61 4.80L34.61 4.80Q33.75 4.80 33.31 5.50L33.31 5.50L33.31 10.50L31.09 10.50L31.09 5.18L30.97 3.08L32.94 3.08L33.11 4.03L33.11 4.03Q33.91 2.90 35.49 2.90L35.49 2.90L35.49 2.90Q36.67 2.90 37.23 3.63L37.23 3.63L37.23 3.63Q37.79 4.35 37.79 5.47L37.79 5.47Z"></path></g><!----><!----></svg>